<?xml version="1.0" encoding="UTF-8" standalone="no"?>
<!-- Created with Inkscape (http://www.inkscape.org/) -->

<svg
   version="1.1"
   id="svg1"
   width="553.59857"
   height="553.59851"
   viewBox="0 0 553.59857 553.59851"
   sodipodi:docname="POCF Logo.svg"
   inkscape:version="1.4 (e7c3feb100, 2024-10-09)"
   xmlns:inkscape="http://www.inkscape.org/namespaces/inkscape"
   xmlns:sodipodi="http://sodipodi.sourceforge.net/DTD/sodipodi-0.dtd"
   xmlns="http://www.w3.org/2000/svg"
   xmlns:svg="http://www.w3.org/2000/svg">
  <sodipodi:namedview
     id="namedview1"
     pagecolor="#ffffff"
     bordercolor="#000000"
     borderopacity="0.25"
     inkscape:showpageshadow="2"
     inkscape:pageopacity="0.0"
     inkscape:pagecheckerboard="0"
     inkscape:deskcolor="#d1d1d1"
     inkscape:zoom="0.095469061"
     inkscape:cx="686.08614"
     inkscape:cy="94.271379"
     inkscape:window-width="1346"
     inkscape:window-height="755"
     inkscape:window-x="0"
     inkscape:window-y="0"
     inkscape:window-maximized="1"
     inkscape:current-layer="svg1">
    <inkscape:page
       x="0"
       y="0"
       width="553.59857"
       height="553.59851"
       id="page2"
       margin="0"
       bleed="0" />
  </sodipodi:namedview>
  <defs
     id="defs1" />
  <rect
     style="fill:#d52127;fill-opacity:1;stroke:none;stroke-width:0.419574;stroke-opacity:1"
     id="rect23"
     width="553.59857"
     height="553.59857"
     x="-9.2746085e-08"
     y="-4.8541619e-07"
     ry="49.834946" />
  <ellipse
     style="fill:#ffffff;fill-opacity:1;stroke:none;stroke-width:0.390392;stroke-opacity:1"
     id="path2-3-1"
     cx="292.69592"
     cy="308.91537"
     rx="16.37789"
     ry="16.878908" />
  <ellipse
     style="fill:#ffffff;fill-opacity:1;stroke:none;stroke-width:0.459363;stroke-opacity:1"
     id="path2-3-1-3"
     cx="212.00024"
     cy="152.20053"
     rx="19.368822"
     ry="19.761082" />
  <ellipse
     style="fill:#ffffff;fill-opacity:1;stroke:none;stroke-width:0.390392;stroke-opacity:1"
     id="path2-3-1-3-6"
     cx="352.35379"
     cy="152.5488"
     rx="16.37789"
     ry="16.878908" />
  <path
     style="fill:#f9f9f9;fill-opacity:1;stroke:none;stroke-width:0.380426;stroke-opacity:1"
     d="m 317.29758,324.12488 c -12.94258,9.67975 -19.0332,10.54984 -19.0332,10.54984 0,0 -7.17824,2.50151 -14.79153,-1.41389 -7.61328,-3.91541 -29.148,-19.46826 -29.148,-19.46826 -1.71465,-1.32479 -8.06562,-0.74642 -3.58911,4.24169 3.80663,4.24168 8.91841,9.46223 8.91841,9.46223 0,0 5.22054,7.06947 6.30816,20.4471 1.08761,13.37763 -0.27191,29.25677 -2.33838,37.74013 -2.06646,8.48338 -6.36252,22.94862 -6.58005,24.25375 -0.21752,1.30514 -0.87008,4.67673 -0.21752,7.17824 1.10204,4.22446 8.45198,5.72344 11.41992,2.28399 1.08762,-1.63142 4.35045,-9.46223 6.09063,-12.39878 1.74019,-2.93655 7.28701,-14.35648 15.87914,-15.22656 8.59214,-0.87009 13.32324,2.12084 16.36856,5.49243 1.56097,1.72822 3.67405,5.15013 5.6232,8.67029 2.78526,5.03021 4.98102,10.52606 4.98102,10.52606 0,0 2.06646,4.35045 5.00301,4.45922 8.99775,0.33323 7.7091,-7.93246 7.61329,-8.48338 -0.43505,-2.50151 -4.89426,-20.99092 -6.63444,-30.5619 -1.74017,-9.57099 -3.05772,-30.03122 -0.97885,-41.43801 0.90854,-4.98523 2.58957,-9.36812 4.87609,-13.01007 3.67546,-5.85421 8.50817,-9.36785 9.48039,-10.3736 2.26092,-2.33888 2.20224,-3.64056 1.63733,-4.31233 -2.16398,-2.57331 -20.10884,10.79903 -20.88807,11.38181 z"
     id="path3" />
  <path
     style="fill:#f9f9f9;fill-opacity:1;stroke:none;stroke-width:0.380426;stroke-opacity:1"
     d="m 390.82016,285.51466 c 1.04587,3.68646 5.73023,14.51802 -3.80664,13.26886 -4.7264,-0.61907 -7.91079,0.10383 -9.5919,2.19823 -2.118,2.63868 -2.0757,7.31883 -2.2576,12.71525 -0.32628,9.67976 -2.39822,59.1529 -7.40123,66.54866 -5.00302,7.39577 -10.11479,3.3716 -12.50754,-10.22355 -2.39275,-13.59515 -9.57098,-47.85493 -9.78851,-52.64042 -0.21752,-4.78549 -0.76133,-14.90028 -7.61329,-15.33533 -6.85195,-0.43505 -12.29001,-0.10877 -10.33231,-10.11479 1.95771,-10.00603 6.09063,-56.44707 6.09063,-56.44707 v -7.61329 c 0,0 -11.31117,21.86101 -23.05738,29.69181 -11.7462,7.83082 -19.79453,0.65257 -24.58003,-5.22053 -4.78549,-5.87311 -22.94861,-25.34136 -34.91234,-35.34739 -11.96374,-10.00604 -9.24471,5.8731 -10.11479,11.09364 -0.8701,5.22053 4.78549,140.08443 4.78549,140.08443 0,0 2.40461,17.70802 -4.05548,18.63089 -6.46008,0.92287 -11.22824,3.23004 -13.07398,-9.22869 -1.84574,-12.45874 -7.65213,-76.98269 -7.69058,-78.75153 -0.0443,-2.03752 -2.42176,-7.29184 -3.53766,-7.22915 -1.11591,0.0627 -2.30718,12.76637 -2.30718,16.91928 0,4.15291 -0.15381,71.36856 -0.15381,71.36856 0,0 -0.61525,10.613 -8.30583,9.84394 -7.69057,-0.76905 -10.92062,-3.69147 -10.92062,-11.07442 0,-7.38296 -1.53811,-92.74838 -1.53811,-92.74838 l -2.76861,-55.21835 c 0,0 -1.07668,-17.84214 -5.38341,-4.61435 -4.30672,13.2278 -17.53452,58.4484 -17.53452,58.4484 0,0 -2.61479,7.53676 -7.69058,5.84483 -5.07577,-1.69193 -6.7677,-4.92196 -4.30671,-11.99729 2.46097,-7.07534 11.14457,-50.45942 17.99595,-75.06005 5.69555,-20.45054 9.21456,-20.46467 29.68562,-21.99506 17.50254,-1.30846 33.22331,0.15381 33.22331,0.15381 0,0 14.76591,1.99956 33.68473,27.53227 18.91882,25.53272 27.99371,39.06815 29.83945,39.68339 1.84574,0.61525 4.76815,4.15291 14.7659,-14.6121 9.99776,-18.76501 10.03684,-42.99389 19.14569,-49.87066 2.1387,-1.61463 6.37075,-2.03731 19.3629,-2.82179 10.3458,-0.62468 18.27241,1.301 20.74619,5.90734 4.46054,8.30583 22.26535,45.86224 22.26535,45.86224 0,0 4.61436,7.8444 11.07444,13.38161 6.46008,5.53721 -0.92287,10.92062 -7.84439,6.30627 -6.92152,-4.61434 -20.45694,-21.3798 -21.07219,-23.84079 -0.61524,-2.46099 3.11038,18.54462 5.1527,29.07039 2.0423,10.52577 5.283,23.76442 6.32887,27.45088 z"
     id="path4" />
  <path
     id="path22"
     style="fill:#ffffff;fill-opacity:1;stroke:none;stroke-width:0.380426;stroke-opacity:1"
     d="m 182.05431,52.896151 c -8.84784,0.17641 -19.05426,1.1382 -28.71399,3.20246 -16.18543,3.45879 -31.0102,9.47954 -37.33252,14.04442 -7.98495,5.76533 -17.602139,12.25488 -25.195029,20.76781 -11.85016,13.286089 -20.45096,30.020439 -25.812321,46.587999 -1.994706,6.164 -2.905879,12.49185 -3.733247,18.84909 -1.911234,14.6854 -2.169392,29.60864 -1.924621,42.98645 0.577574,31.567 5.416902,39.76635 9.623093,55.46406 1.841078,6.87097 26.184616,78.21463 71.570705,130.58908 25.4306,29.34626 54.49846,58.79358 80.23444,79.02741 33.26857,26.15592 60.04125,36.44812 63.27263,36.31616 1.36713,-0.0554 36.62652,-18.14585 62.31326,-36.88033 35.02737,-25.54697 66.30424,-58.5195 77.19319,-76.17094 18.87419,-30.59578 20.15769,-30.72825 27.98662,-44.73218 7.82893,-14.00393 11.79752,-22.8301 16.89891,-34.40927 5.10138,-11.57907 9.61165,-21.10227 13.70824,-35.12281 2.11153,-7.22658 5.38756,-16.35693 7.24633,-27.16094 1.74745,-10.157 3.35391,-10.4871 4.29746,-22.92244 0.94356,-12.43535 1.06126,-35.25614 -1.07731,-54.9883 -1.23673,-11.41099 -2.98087,-25.44974 -8.13491,-37.27355 -3.77038,-8.64959 -8.79281,-18.42813 -13.85962,-25.1734 -11.99302,-15.965939 -33.76575,-27.546959 -46.07883,-34.310929 -12.31308,-6.76396 -44.40025,-7.5191 -57.78186,-7.67291 -13.3816,-0.15381 -30.47855,2.58445 -45.18237,6.76073 -14.70382,4.17629 -30.05427,11.48416 -31.16547,12.12571 -1.81538,1.0481 -6.62248,3.68654 -8.68341,4.05369 -2.06093,0.36715 -27.8966,-23.43583 -55.99877,-28.97547 -2.08731,-0.41146 -16.09488,-4.13023 -35.345,-4.90689 -2.57635,-0.10395 -5.37632,-0.13353 -8.3256,-0.0747 z m 4.58842,7.28761 c 2.85752,-0.0568 5.56991,-0.0296 8.06611,0.0708 18.65122,0.74999 32.22368,4.34246 34.24604,4.73979 20.72076,4.07097 40.09974,18.29987 49.09256,24.73895 -0.24044,1.04816 0.32374,2.3573 -0.13565,3.11595 -2.14367,3.54022 -10.85361,7.494259 -20.27043,27.858829 -0.67788,1.46596 -0.8096,2.58934 -0.59764,3.38922 0.45061,1.70049 4.22708,2.5531 4.71621,1.96787 2.14081,-2.56142 4.73836,-8.41466 6.34004,-11.20959 3.91532,-6.83219 9.03883,-14.23683 10.61195,-15.220019 1.2305,-0.76906 4.99915,-2.76845 7.61395,3.153299 1.36107,3.08244 6.8931,11.64366 10.51561,20.43361 3.33678,8.09663 5.59444,16.79163 5.70506,17.16038 0.61448,3.66212 1.60489,9.20148 5.03271,8.59297 4.86651,-0.30265 4.48631,-3.50107 4.72604,-7.81643 0.41028,-7.38558 -3.96129,-18.8644 -7.03008,-24.65441 -1.62858,-3.07272 -6.11829,-9.3523 -9.5425,-13.64337 -2.57623,-3.405849 -6.74224,-7.135229 -8.43962,-8.494679 -1.69737,-1.35944 -4.3121,2.50023 -5.31188,2.30797 -0.99976,-0.19226 -1.61526,-1.11476 -1.84598,-1.73 -0.23072,-0.61524 -0.49895,-2.15408 -0.30668,-2.65397 0.12254,-0.3186 0.19761,-0.78109 0.24771,-1.14022 1.57691,1.09382 2.7951,1.88482 3.13561,1.82436 1.99681,-0.35454 6.65517,-2.90396 8.41407,-3.91608 1.07664,-0.6195 15.94796,-7.67605 30.19432,-11.70892 14.24638,-4.03285 30.81147,-6.67532 43.77676,-6.5268 12.9653,0.14852 44.05305,0.87586 55.98305,7.40753 11.93,6.53168 33.02577,17.71572 44.64568,33.133339 4.90916,6.51362 9.77603,15.95586 13.42909,24.3084 4.99371,11.41774 6.68502,24.97463 7.88328,35.99374 2.07203,19.05449 1.95613,41.09079 1.04192,53.09908 -0.91419,12.00828 -2.47071,12.32789 -4.16378,22.13607 -1.80094,10.43293 -4.97442,19.25064 -7.02025,26.22911 -3.96915,13.53901 -8.33897,22.73438 -13.28164,33.91576 -4.94268,11.18149 -8.78865,19.70459 -16.37402,33.22769 -7.58537,13.52301 -8.82872,13.64983 -27.11571,43.19489 -10.55019,17.0452 -40.85322,48.88668 -74.79086,73.55624 -24.8876,18.091 -59.05224,35.55844 -60.37684,35.61239 -3.13084,0.12753 -29.06728,-9.81017 -61.30083,-35.06785 C 199.2208,438.03075 171.05583,409.59561 146.4164,381.2572 102.44233,330.68144 78.854901,261.7873 77.071101,255.15233 c -4.07534,-15.1586 -8.762708,-23.07621 -9.322316,-53.55909 -0.237161,-12.91838 0.01379,-27.33097 1.865638,-41.51204 0.80163,-6.1389 1.684618,-12.24802 3.617278,-18.20033 5.19455,-15.99858 13.52676,-32.15992 25.00826,-44.989709 7.356659,-8.22057 16.674109,-14.48686 24.410629,-20.05419 6.12563,-4.40811 20.48878,-10.22081 36.17067,-13.56081 9.3592,-1.99338 19.24888,-2.92202 27.82147,-3.09237 z" />
</svg>
