<?xml version="1.0" encoding="UTF-8" standalone="no"?>
<!-- Created with Inkscape (http://www.inkscape.org/) -->

<svg
   version="1.1"
   id="svg1"
   width="553.59857"
   height="553.59857"
   viewBox="0 0 553.59857 553.59857"
   sodipodi:docname="POCF Logo.svg"
   xmlns:inkscape="http://www.inkscape.org/namespaces/inkscape"
   xmlns:sodipodi="http://sodipodi.sourceforge.net/DTD/sodipodi-0.dtd"
   xmlns="http://www.w3.org/2000/svg"
   xmlns:svg="http://www.w3.org/2000/svg">
  <sodipodi:namedview
     id="namedview1"
     pagecolor="#ffffff"
     bordercolor="#000000"
     borderopacity="0.25"
     inkscape:showpageshadow="2"
     inkscape:pageopacity="0.0"
     inkscape:pagecheckerboard="0"
     inkscape:deskcolor="#d1d1d1">
    <inkscape:page
       x="0"
       y="0"
       width="553.59857"
       height="553.59857"
       id="page2"
       margin="0"
       bleed="0" />
  </sodipodi:namedview>
  <defs
     id="defs1" />
  <g
     id="g23"
     transform="matrix(1.0065429,0,0,1.0065429,-428.21142,-221.43943)">
    <rect
       style="fill:#ecc731;fill-opacity:1;stroke:none;stroke-width:0.416847;stroke-opacity:1"
       id="rect23"
       width="550"
       height="550"
       x="425.42789"
       y="220"
       ry="49.511002" />
    <ellipse
       style="fill:#ffffff;fill-opacity:1;stroke:none;stroke-width:0.387854;stroke-opacity:1"
       id="path2-3-1"
       cx="716.22119"
       cy="526.90729"
       rx="16.271427"
       ry="16.76919" />
    <ellipse
       style="fill:#ffffff;fill-opacity:1;stroke:none;stroke-width:0.456377;stroke-opacity:1"
       id="path2-3-1-3"
       cx="636.05005"
       cy="371.21118"
       rx="19.242918"
       ry="19.632627" />
    <ellipse
       style="fill:#ffffff;fill-opacity:1;stroke:none;stroke-width:0.387854;stroke-opacity:1"
       id="path2-3-1-3-6"
       cx="775.49127"
       cy="371.55716"
       rx="16.271427"
       ry="16.76919" />
    <path
       style="fill:#d52127;fill-opacity:1;stroke:none;stroke-width:0.377953;stroke-opacity:1"
       d="m 740.66292,542.01794 c -12.85845,9.61683 -18.90948,10.48126 -18.90948,10.48126 0,0 -7.13158,2.48525 -14.69538,-1.4047 -7.56379,-3.88995 -28.95853,-19.34171 -28.95853,-19.34171 -1.7035,-1.31617 -8.01319,-0.74156 -3.56578,4.21412 3.78189,4.21411 8.86044,9.40072 8.86044,9.40072 0,0 5.1866,7.02352 6.26715,20.31419 1.08054,13.29067 -0.27014,29.06659 -2.32317,37.49481 -2.05303,8.42823 -6.32117,22.79944 -6.53728,24.09609 -0.21611,1.29665 -0.86443,4.64633 -0.21611,7.13158 1.09488,4.197 8.39704,5.68623 11.34569,2.26914 1.08055,-1.62082 4.32217,-9.40072 6.05104,-12.31818 1.72887,-2.91747 7.23964,-14.26316 15.77592,-15.12759 8.53628,-0.86443 13.23663,2.10706 16.26215,5.45673 1.55083,1.71699 3.65017,5.11665 5.58665,8.61393 2.76716,4.99751 4.94864,10.45764 4.94864,10.45764 0,0 2.05303,4.32217 4.97049,4.43023 8.93926,0.33107 7.65899,-7.88089 7.5638,-8.42823 -0.43222,-2.48525 -4.86244,-20.85447 -6.59131,-30.36324 -1.72886,-9.50877 -3.03784,-29.83601 -0.97249,-41.16865 0.90264,-4.95282 2.57274,-9.30722 4.8444,-12.9255 3.65156,-5.81615 8.45286,-9.30695 9.41876,-10.30616 2.24622,-2.32368 2.18792,-3.6169 1.62669,-4.2843 -2.14992,-2.55659 -19.97813,10.72883 -20.75229,11.30782 z"
       id="path3" />
    <path
       style="fill:#d52127;fill-opacity:1;stroke:none;stroke-width:0.377953;stroke-opacity:1"
       d="m 813.70757,503.6587 c 1.03907,3.6625 5.69298,14.42365 -3.78189,13.18261 -4.69568,-0.61505 -7.85937,0.10315 -9.52955,2.18394 -2.10423,2.62153 -2.06221,7.27125 -2.24293,12.6326 -0.32416,9.61683 -2.38263,58.76838 -7.35312,66.11607 -4.97049,7.34769 -10.04904,3.34968 -12.42623,-10.1571 -2.3772,-13.50677 -9.50877,-47.54385 -9.72488,-52.29824 -0.21611,-4.75438 -0.75638,-14.80342 -7.5638,-15.23564 -6.80741,-0.43222 -12.21012,-0.10806 -10.26515,-10.04904 1.94498,-9.94099 6.05104,-56.08014 6.05104,-56.08014 v -7.5638 c 0,0 -11.23764,21.7189 -22.9075,29.4988 -11.66985,7.77991 -19.66586,0.64833 -24.42025,-5.1866 -4.75438,-5.83493 -22.79944,-25.17663 -34.6854,-35.11762 -11.88597,-9.94099 -9.18461,5.83493 -10.04904,11.02153 -0.86444,5.1866 4.75438,139.17383 4.75438,139.17383 0,0 2.38898,17.59291 -4.02911,18.50978 -6.41809,0.91687 -11.15526,3.20905 -12.989,-9.1687 -1.83374,-12.37775 -7.60239,-76.48227 -7.64059,-78.23961 -0.044,-2.02428 -2.40601,-7.24444 -3.51466,-7.18216 -1.10866,0.0623 -2.29218,12.68338 -2.29218,16.8093 0,4.12591 -0.15281,70.90464 -0.15281,70.90464 0,0 -0.61125,10.54401 -8.25184,9.77995 -7.64058,-0.76405 -10.84963,-3.66748 -10.84963,-11.00244 0,-7.33496 -1.52812,-92.14548 -1.52812,-92.14548 l -2.75061,-54.85941 c 0,0 -1.06968,-17.72616 -5.34841,-4.58435 -4.27873,13.14181 -17.42054,58.06846 -17.42054,58.06846 0,0 -2.5978,7.48777 -7.64059,5.80684 -5.04278,-1.68093 -6.72371,-4.88997 -4.27872,-11.91931 2.44498,-7.02934 11.07213,-50.13141 17.87897,-74.57213 5.65853,-20.3176 9.15467,-20.33164 29.49266,-21.85208 17.38876,-1.29996 33.00734,0.15281 33.00734,0.15281 0,0 14.66993,1.98656 33.46577,27.3533 18.79584,25.36675 27.81174,38.81419 29.64548,39.42543 1.83374,0.61125 4.73716,4.12592 14.66992,-14.51711 9.93277,-18.64303 9.97159,-42.71442 19.02123,-49.54649 2.1248,-1.60413 6.32934,-2.02406 19.23704,-2.80344 10.27855,-0.62062 18.15363,1.29254 20.61133,5.86894 4.43154,8.25184 22.12062,45.56412 22.12062,45.56412 0,0 4.58436,7.7934 11.00245,13.29462 6.41809,5.50122 -0.91687,10.84963 -7.7934,6.26528 -6.87653,-4.58435 -20.32396,-21.24083 -20.93521,-23.68582 -0.61124,-2.44499 3.09016,18.42407 5.1192,28.88142 2.02903,10.45735 5.24866,23.60994 6.28773,27.27244 z"
       id="path4" />
    <path
       id="path22"
       style="fill:#ffffff;fill-opacity:1;stroke:none;stroke-width:0.377953;stroke-opacity:1"
       d="m 606.29878,272.5523 c -8.79033,0.17526 -18.9304,1.1308 -28.52734,3.18164 -16.08022,3.43631 -30.80862,9.41792 -37.08985,13.95313 -7.93304,5.72785 -17.48772,12.17522 -25.03125,20.63281 -11.77313,13.19972 -20.31802,29.82529 -25.64453,46.28516 -1.98174,6.12393 -2.88699,12.41065 -3.70898,18.72656 -1.89881,14.58994 -2.15529,29.41618 -1.91211,42.70703 0.57382,31.3618 5.38169,39.50785 9.56054,55.10352 1.82911,6.8263 26.01441,77.7062 71.10547,129.7402 25.26529,29.1555 54.1442,58.4114 79.71289,78.5137 33.05231,25.9859 59.65096,36.2112 62.86133,36.0801 1.35824,-0.055 36.38843,-18.0279 61.9082,-36.6406 34.79968,-25.3809 65.87324,-58.1391 76.69141,-75.6758 18.7515,-30.3969 20.02665,-30.5285 27.80469,-44.4414 7.77804,-13.9129 11.72084,-22.6817 16.78906,-34.1856 5.06822,-11.5038 9.54918,-20.9651 13.61914,-34.8945 2.0978,-7.1796 5.35254,-16.2506 7.19922,-26.98438 1.73609,-10.09098 3.33211,-10.41893 4.26953,-22.77344 0.93742,-12.35452 1.05436,-35.02696 -1.07031,-54.63086 -1.22869,-11.33681 -2.96149,-25.2843 -8.08203,-37.03125 -3.74587,-8.59337 -8.73565,-18.30834 -13.76953,-25.00977 -11.91506,-15.86215 -33.54626,-27.36789 -45.7793,-34.08789 -12.23304,-6.72 -44.11163,-7.47023 -57.40625,-7.62304 -13.29462,-0.15281 -30.28043,2.56765 -44.88867,6.71679 -14.60824,4.14914 -29.85891,11.4095 -30.96289,12.04688 -1.80357,1.04129 -6.57943,3.66258 -8.62696,4.02734 -2.04753,0.36477 -27.71526,-23.28348 -55.63476,-28.78711 -2.07374,-0.40879 -15.99025,-4.10339 -35.11524,-4.875 -2.5596,-0.10327 -5.34137,-0.13266 -8.27148,-0.0742 z m 4.55859,7.24024 c 2.83895,-0.0564 5.5337,-0.0294 8.01368,0.0703 18.52998,0.74511 32.01421,4.31423 34.02343,4.70898 20.58606,4.0445 39.83907,18.18091 48.77344,24.57813 -0.23888,1.04135 0.32163,2.34198 -0.13477,3.0957 -2.12974,3.51721 -10.78306,7.44554 -20.13867,27.67774 -0.67347,1.45643 -0.80433,2.5725 -0.59375,3.36718 0.44768,1.68944 4.1996,2.53651 4.68555,1.95508 2.1269,-2.54477 4.70756,-8.35996 6.29883,-11.13672 3.88987,-6.78778 8.98007,-14.14429 10.54297,-15.12109 1.2225,-0.76406 4.96665,-2.75045 7.56445,3.13281 1.35223,3.0624 6.8483,11.56797 10.44726,20.30078 3.31509,8.044 5.55807,16.68248 5.66797,17.04883 0.61049,3.63832 1.59446,9.14167 5,8.53711 4.83488,-0.30068 4.45715,-3.47831 4.69532,-7.76562 0.40761,-7.33757 -3.93554,-18.74177 -6.98438,-24.49414 -1.618,-3.05275 -6.07852,-9.29151 -9.48047,-13.55469 -2.55949,-3.38371 -6.69842,-7.08884 -8.38476,-8.43946 -1.68634,-1.3506 -4.28407,2.48398 -5.27735,2.29297 -0.99327,-0.19101 -1.60476,-1.10751 -1.83398,-1.71875 -0.22922,-0.61125 -0.49571,-2.14008 -0.30469,-2.63672 0.12174,-0.31653 0.19632,-0.77602 0.2461,-1.13281 1.56666,1.08671 2.77693,1.87257 3.11523,1.8125 1.98383,-0.35224 6.61191,-2.88508 8.35937,-3.89062 1.06964,-0.61548 15.84429,-7.62616 29.99805,-11.63281 14.15377,-4.00664 30.61118,-6.63193 43.49219,-6.48438 12.88102,0.14756 43.76669,0.87017 55.61914,7.35938 11.85245,6.48922 32.81109,17.60056 44.35547,32.91796 4.87725,6.47128 9.71248,15.85215 13.34179,24.15039 4.96125,11.34352 6.64157,24.81229 7.83204,35.75977 2.05856,18.93063 1.94341,40.82368 1.03515,52.75391 -0.90825,11.93023 -2.45465,12.24776 -4.13672,21.99218 -1.78923,10.36511 -4.94208,19.12551 -6.97461,26.05861 -3.94335,13.451 -8.28477,22.5866 -13.19531,33.6953 -4.91055,11.1088 -8.73152,19.5765 -16.26758,33.0117 -7.53606,13.4351 -8.77133,13.5611 -26.93945,42.9141 -10.48161,16.9344 -40.58766,48.5689 -74.30469,73.0781 -24.72582,17.9734 -58.66838,35.3273 -59.98437,35.3809 -3.11049,0.1267 -28.87833,-9.7464 -60.90235,-34.8399 -24.77322,-19.4119 -52.75511,-47.6622 -77.23437,-75.8164 -43.68823,-50.247 -67.12233,-118.6933 -68.89453,-125.28514 -4.04885,-15.06007 -8.70575,-22.92621 -9.26172,-53.21094 -0.23562,-12.8344 0.0137,-27.15331 1.85351,-41.24219 0.79642,-6.099 1.67367,-12.16841 3.59376,-18.08203 5.16079,-15.89458 13.43884,-31.95086 24.8457,-44.69726 7.30884,-8.16713 16.56572,-14.39269 24.25195,-19.92383 6.08581,-4.37945 20.3556,-10.15437 35.93555,-13.47266 9.29836,-1.98042 19.12376,-2.90302 27.64062,-3.07226 z" />
  </g>
</svg>
